<mxfile host="app.diagrams.net" modified="2020-08-30T23:20:42.981Z" agent="5.0 (Windows NT 10.0; Win64; x64) AppleWebKit/537.36 (KHTML, like Gecko) Chrome/84.0.4147.135 Safari/537.36" etag="bintzXHP2CjH-NGllz1V" version="13.6.5" type="github">
  <diagram id="YSU_OaaCwWKr7Xxg0x77" name="Page-1">
    <mxGraphModel dx="5683" dy="3900" grid="0" gridSize="10" guides="1" tooltips="1" connect="1" arrows="1" fold="1" page="0" pageScale="1" pageWidth="827" pageHeight="1169" math="0" shadow="0">
      <root>
        <mxCell id="0" />
        <mxCell id="1" parent="0" />
        <mxCell id="57gc0RbECpZAlQh10Z24-1" value="" style="strokeWidth=1;shadow=0;dashed=0;align=center;html=1;shape=mxgraph.mockup.containers.browserWindow;rSize=0;strokeColor=#666666;strokeColor2=#008cff;strokeColor3=#c4c4c4;mainText=,;recursiveResize=0;fontSize=24;" vertex="1" parent="1">
          <mxGeometry x="-2436" y="-2210" width="3413" height="10612" as="geometry" />
        </mxCell>
        <mxCell id="57gc0RbECpZAlQh10Z24-2" value="Page 1" style="strokeWidth=1;shadow=0;dashed=0;align=center;html=1;shape=mxgraph.mockup.containers.anchor;fontSize=17;fontColor=#666666;align=left;" vertex="1" parent="57gc0RbECpZAlQh10Z24-1">
          <mxGeometry x="60" y="12" width="110" height="26" as="geometry" />
        </mxCell>
        <mxCell id="57gc0RbECpZAlQh10Z24-3" value="https://www.draw.io" style="strokeWidth=1;shadow=0;dashed=0;align=center;html=1;shape=mxgraph.mockup.containers.anchor;rSize=0;fontSize=17;fontColor=#666666;align=left;" vertex="1" parent="57gc0RbECpZAlQh10Z24-1">
          <mxGeometry x="130" y="60" width="250" height="26" as="geometry" />
        </mxCell>
        <mxCell id="57gc0RbECpZAlQh10Z24-11" value="" style="verticalLabelPosition=bottom;shadow=0;dashed=0;align=center;html=1;verticalAlign=top;strokeWidth=1;shape=mxgraph.mockup.graphics.simpleIcon;strokeColor=#999999;fontSize=24;" vertex="1" parent="57gc0RbECpZAlQh10Z24-1">
          <mxGeometry x="22" y="128" width="416" height="337" as="geometry" />
        </mxCell>
        <mxCell id="57gc0RbECpZAlQh10Z24-12" value="" style="verticalLabelPosition=bottom;shadow=0;dashed=0;align=center;html=1;verticalAlign=top;strokeWidth=1;shape=mxgraph.mockup.graphics.pieChart;strokeColor=#008cff;parts=10,20,35;partColors=#e0e0e0,#d0d0d0,#c0c0c0,#b0b0b0,#a0a0a0;strokeWidth=2;fontSize=24;" vertex="1" parent="57gc0RbECpZAlQh10Z24-1">
          <mxGeometry x="121" y="196.5" width="200" height="200" as="geometry" />
        </mxCell>
        <mxCell id="57gc0RbECpZAlQh10Z24-14" value="Logo" style="text;html=1;strokeColor=none;fillColor=none;align=center;verticalAlign=middle;whiteSpace=wrap;rounded=0;fontSize=30;" vertex="1" parent="57gc0RbECpZAlQh10Z24-1">
          <mxGeometry x="111.5" y="210.5" width="237" height="186" as="geometry" />
        </mxCell>
        <mxCell id="57gc0RbECpZAlQh10Z24-4" value="" style="strokeWidth=1;shadow=0;dashed=0;align=center;html=1;shape=mxgraph.mockup.forms.rrect;rSize=0;strokeColor=#999999;fontSize=24;" vertex="1" parent="57gc0RbECpZAlQh10Z24-1">
          <mxGeometry x="2470" y="139" width="911" height="77" as="geometry" />
        </mxCell>
        <mxCell id="57gc0RbECpZAlQh10Z24-5" value="File" style="strokeColor=inherit;fillColor=inherit;gradientColor=inherit;strokeWidth=1;shadow=0;dashed=0;align=center;html=1;shape=mxgraph.mockup.forms.rrect;rSize=0;fontSize=17;fontColor=#666666;" vertex="1" parent="57gc0RbECpZAlQh10Z24-4">
          <mxGeometry width="151.83333333333334" height="77" as="geometry" />
        </mxCell>
        <mxCell id="57gc0RbECpZAlQh10Z24-6" value="Edit" style="strokeColor=inherit;fillColor=inherit;gradientColor=inherit;strokeWidth=1;shadow=0;dashed=0;align=center;html=1;shape=mxgraph.mockup.forms.rrect;rSize=0;fontSize=17;fontColor=#666666;" vertex="1" parent="57gc0RbECpZAlQh10Z24-4">
          <mxGeometry x="151.83333333333334" width="151.83333333333334" height="77" as="geometry" />
        </mxCell>
        <mxCell id="57gc0RbECpZAlQh10Z24-7" value="Options" style="strokeColor=inherit;fillColor=inherit;gradientColor=inherit;strokeWidth=1;shadow=0;dashed=0;align=center;html=1;shape=mxgraph.mockup.forms.rrect;rSize=0;fontSize=17;fontColor=#666666;" vertex="1" parent="57gc0RbECpZAlQh10Z24-4">
          <mxGeometry x="303.6666666666667" width="151.83333333333334" height="77" as="geometry" />
        </mxCell>
        <mxCell id="57gc0RbECpZAlQh10Z24-8" value="Tools" style="strokeColor=inherit;fillColor=inherit;gradientColor=inherit;strokeWidth=1;shadow=0;dashed=0;align=center;html=1;shape=mxgraph.mockup.forms.rrect;rSize=0;fontSize=17;fontColor=#666666;" vertex="1" parent="57gc0RbECpZAlQh10Z24-4">
          <mxGeometry x="455.5" width="151.83333333333334" height="77" as="geometry" />
        </mxCell>
        <mxCell id="57gc0RbECpZAlQh10Z24-9" value="Window" style="strokeColor=inherit;fillColor=inherit;gradientColor=inherit;strokeWidth=1;shadow=0;dashed=0;align=center;html=1;shape=mxgraph.mockup.forms.rrect;rSize=0;fontSize=17;fontColor=#666666;" vertex="1" parent="57gc0RbECpZAlQh10Z24-4">
          <mxGeometry x="607.3333333333334" width="151.83333333333334" height="77" as="geometry" />
        </mxCell>
        <mxCell id="57gc0RbECpZAlQh10Z24-10" value="Help" style="strokeColor=inherit;fillColor=inherit;gradientColor=inherit;strokeWidth=1;shadow=0;dashed=0;align=center;html=1;shape=mxgraph.mockup.forms.rrect;rSize=0;fontSize=17;fontColor=#666666;" vertex="1" parent="57gc0RbECpZAlQh10Z24-4">
          <mxGeometry x="759.1666666666667" width="151.83333333333334" height="77" as="geometry" />
        </mxCell>
        <mxCell id="57gc0RbECpZAlQh10Z24-18" value="SECTIONS OF FOOD ITEMS" style="text;align=center;fontStyle=1;verticalAlign=middle;spacingLeft=3;spacingRight=3;strokeColor=none;rotatable=0;points=[[0,0.5],[1,0.5]];portConstraint=eastwest;fontSize=40;" vertex="1" parent="57gc0RbECpZAlQh10Z24-1">
          <mxGeometry x="563" y="2264" width="2276" height="376" as="geometry" />
        </mxCell>
        <mxCell id="57gc0RbECpZAlQh10Z24-19" value="&lt;h1&gt;WELCOME TO ONLINE FOOD STORE&lt;/h1&gt;&lt;p&gt;Lorem ipsum dolor sit amet, consectetur adipisicing elit, sed do eiusmod tempor incididunt ut labore et dolore magna aliqua.&lt;/p&gt;" style="text;html=1;strokeColor=none;fillColor=none;spacing=5;spacingTop=-20;whiteSpace=wrap;overflow=hidden;rounded=0;fontSize=40;align=center;" vertex="1" parent="57gc0RbECpZAlQh10Z24-1">
          <mxGeometry x="660" y="1679" width="1995" height="392" as="geometry" />
        </mxCell>
        <mxCell id="57gc0RbECpZAlQh10Z24-15" value="" style="verticalLabelPosition=bottom;shadow=0;dashed=0;align=center;html=1;verticalAlign=top;strokeWidth=1;shape=mxgraph.mockup.graphics.simpleIcon;strokeColor=#999999;fontSize=30;" vertex="1" parent="1">
          <mxGeometry x="-2394" y="-1675" width="3284" height="1016" as="geometry" />
        </mxCell>
        <mxCell id="57gc0RbECpZAlQh10Z24-17" value="IMAGE SLIDER SHOWING DIFFERENT CATEGORIES OF FOOD ITEMS" style="text;html=1;strokeColor=none;fillColor=none;align=center;verticalAlign=middle;whiteSpace=wrap;rounded=0;fontSize=40;fontStyle=1" vertex="1" parent="1">
          <mxGeometry x="-1457" y="-1508" width="1204" height="483" as="geometry" />
        </mxCell>
        <mxCell id="57gc0RbECpZAlQh10Z24-20" value="" style="shape=table;html=1;whiteSpace=wrap;startSize=0;container=1;collapsible=0;childLayout=tableLayout;fontSize=40;align=center;" vertex="1" parent="1">
          <mxGeometry x="-2065" y="336" width="2717" height="1563" as="geometry" />
        </mxCell>
        <mxCell id="57gc0RbECpZAlQh10Z24-21" value="" style="shape=partialRectangle;html=1;whiteSpace=wrap;collapsible=0;dropTarget=0;pointerEvents=0;fillColor=none;top=0;left=0;bottom=0;right=0;points=[[0,0.5],[1,0.5]];portConstraint=eastwest;" vertex="1" parent="57gc0RbECpZAlQh10Z24-20">
          <mxGeometry width="2717" height="521" as="geometry" />
        </mxCell>
        <mxCell id="57gc0RbECpZAlQh10Z24-22" value="" style="shape=partialRectangle;html=1;whiteSpace=wrap;connectable=0;fillColor=none;top=0;left=0;bottom=0;right=0;overflow=hidden;" vertex="1" parent="57gc0RbECpZAlQh10Z24-21">
          <mxGeometry width="905" height="521" as="geometry" />
        </mxCell>
        <mxCell id="57gc0RbECpZAlQh10Z24-23" value="" style="shape=partialRectangle;html=1;whiteSpace=wrap;connectable=0;fillColor=none;top=0;left=0;bottom=0;right=0;overflow=hidden;" vertex="1" parent="57gc0RbECpZAlQh10Z24-21">
          <mxGeometry x="905" width="907" height="521" as="geometry" />
        </mxCell>
        <mxCell id="57gc0RbECpZAlQh10Z24-24" value="" style="shape=partialRectangle;html=1;whiteSpace=wrap;connectable=0;fillColor=none;top=0;left=0;bottom=0;right=0;overflow=hidden;" vertex="1" parent="57gc0RbECpZAlQh10Z24-21">
          <mxGeometry x="1812" width="905" height="521" as="geometry" />
        </mxCell>
        <mxCell id="57gc0RbECpZAlQh10Z24-25" value="" style="shape=partialRectangle;html=1;whiteSpace=wrap;collapsible=0;dropTarget=0;pointerEvents=0;fillColor=none;top=0;left=0;bottom=0;right=0;points=[[0,0.5],[1,0.5]];portConstraint=eastwest;" vertex="1" parent="57gc0RbECpZAlQh10Z24-20">
          <mxGeometry y="521" width="2717" height="521" as="geometry" />
        </mxCell>
        <mxCell id="57gc0RbECpZAlQh10Z24-26" value="" style="shape=partialRectangle;html=1;whiteSpace=wrap;connectable=0;fillColor=none;top=0;left=0;bottom=0;right=0;overflow=hidden;" vertex="1" parent="57gc0RbECpZAlQh10Z24-25">
          <mxGeometry width="905" height="521" as="geometry" />
        </mxCell>
        <mxCell id="57gc0RbECpZAlQh10Z24-27" value="" style="shape=partialRectangle;html=1;whiteSpace=wrap;connectable=0;fillColor=none;top=0;left=0;bottom=0;right=0;overflow=hidden;" vertex="1" parent="57gc0RbECpZAlQh10Z24-25">
          <mxGeometry x="905" width="907" height="521" as="geometry" />
        </mxCell>
        <mxCell id="57gc0RbECpZAlQh10Z24-28" value="" style="shape=partialRectangle;html=1;whiteSpace=wrap;connectable=0;fillColor=none;top=0;left=0;bottom=0;right=0;overflow=hidden;" vertex="1" parent="57gc0RbECpZAlQh10Z24-25">
          <mxGeometry x="1812" width="905" height="521" as="geometry" />
        </mxCell>
        <mxCell id="57gc0RbECpZAlQh10Z24-29" value="" style="shape=partialRectangle;html=1;whiteSpace=wrap;collapsible=0;dropTarget=0;pointerEvents=0;fillColor=none;top=0;left=0;bottom=0;right=0;points=[[0,0.5],[1,0.5]];portConstraint=eastwest;" vertex="1" parent="57gc0RbECpZAlQh10Z24-20">
          <mxGeometry y="1042" width="2717" height="521" as="geometry" />
        </mxCell>
        <mxCell id="57gc0RbECpZAlQh10Z24-30" value="" style="shape=partialRectangle;html=1;whiteSpace=wrap;connectable=0;fillColor=none;top=0;left=0;bottom=0;right=0;overflow=hidden;" vertex="1" parent="57gc0RbECpZAlQh10Z24-29">
          <mxGeometry width="905" height="521" as="geometry" />
        </mxCell>
        <mxCell id="57gc0RbECpZAlQh10Z24-31" value="" style="shape=partialRectangle;html=1;whiteSpace=wrap;connectable=0;fillColor=none;top=0;left=0;bottom=0;right=0;overflow=hidden;" vertex="1" parent="57gc0RbECpZAlQh10Z24-29">
          <mxGeometry x="905" width="907" height="521" as="geometry" />
        </mxCell>
        <mxCell id="57gc0RbECpZAlQh10Z24-32" value="" style="shape=partialRectangle;html=1;whiteSpace=wrap;connectable=0;fillColor=none;top=0;left=0;bottom=0;right=0;overflow=hidden;" vertex="1" parent="57gc0RbECpZAlQh10Z24-29">
          <mxGeometry x="1812" width="905" height="521" as="geometry" />
        </mxCell>
        <mxCell id="57gc0RbECpZAlQh10Z24-33" value="" style="shape=table;html=1;whiteSpace=wrap;startSize=0;container=1;collapsible=0;childLayout=tableLayout;fontSize=40;align=center;" vertex="1" parent="1">
          <mxGeometry x="-2165" y="2047" width="2883" height="1536" as="geometry" />
        </mxCell>
        <mxCell id="57gc0RbECpZAlQh10Z24-34" value="" style="shape=partialRectangle;html=1;whiteSpace=wrap;collapsible=0;dropTarget=0;pointerEvents=0;fillColor=none;top=0;left=0;bottom=0;right=0;points=[[0,0.5],[1,0.5]];portConstraint=eastwest;" vertex="1" parent="57gc0RbECpZAlQh10Z24-33">
          <mxGeometry width="2883" height="512" as="geometry" />
        </mxCell>
        <mxCell id="57gc0RbECpZAlQh10Z24-35" value="" style="shape=partialRectangle;html=1;whiteSpace=wrap;connectable=0;fillColor=none;top=0;left=0;bottom=0;right=0;overflow=hidden;" vertex="1" parent="57gc0RbECpZAlQh10Z24-34">
          <mxGeometry width="961" height="512" as="geometry" />
        </mxCell>
        <mxCell id="57gc0RbECpZAlQh10Z24-36" value="" style="shape=partialRectangle;html=1;whiteSpace=wrap;connectable=0;fillColor=none;top=0;left=0;bottom=0;right=0;overflow=hidden;" vertex="1" parent="57gc0RbECpZAlQh10Z24-34">
          <mxGeometry x="961" width="961" height="512" as="geometry" />
        </mxCell>
        <mxCell id="57gc0RbECpZAlQh10Z24-37" value="" style="shape=partialRectangle;html=1;whiteSpace=wrap;connectable=0;fillColor=none;top=0;left=0;bottom=0;right=0;overflow=hidden;" vertex="1" parent="57gc0RbECpZAlQh10Z24-34">
          <mxGeometry x="1922" width="961" height="512" as="geometry" />
        </mxCell>
        <mxCell id="57gc0RbECpZAlQh10Z24-38" value="" style="shape=partialRectangle;html=1;whiteSpace=wrap;collapsible=0;dropTarget=0;pointerEvents=0;fillColor=none;top=0;left=0;bottom=0;right=0;points=[[0,0.5],[1,0.5]];portConstraint=eastwest;" vertex="1" parent="57gc0RbECpZAlQh10Z24-33">
          <mxGeometry y="512" width="2883" height="512" as="geometry" />
        </mxCell>
        <mxCell id="57gc0RbECpZAlQh10Z24-39" value="" style="shape=partialRectangle;html=1;whiteSpace=wrap;connectable=0;fillColor=none;top=0;left=0;bottom=0;right=0;overflow=hidden;" vertex="1" parent="57gc0RbECpZAlQh10Z24-38">
          <mxGeometry width="961" height="512" as="geometry" />
        </mxCell>
        <mxCell id="57gc0RbECpZAlQh10Z24-40" value="" style="shape=partialRectangle;html=1;whiteSpace=wrap;connectable=0;fillColor=none;top=0;left=0;bottom=0;right=0;overflow=hidden;" vertex="1" parent="57gc0RbECpZAlQh10Z24-38">
          <mxGeometry x="961" width="961" height="512" as="geometry" />
        </mxCell>
        <mxCell id="57gc0RbECpZAlQh10Z24-41" value="" style="shape=partialRectangle;html=1;whiteSpace=wrap;connectable=0;fillColor=none;top=0;left=0;bottom=0;right=0;overflow=hidden;" vertex="1" parent="57gc0RbECpZAlQh10Z24-38">
          <mxGeometry x="1922" width="961" height="512" as="geometry" />
        </mxCell>
        <mxCell id="57gc0RbECpZAlQh10Z24-42" value="" style="shape=partialRectangle;html=1;whiteSpace=wrap;collapsible=0;dropTarget=0;pointerEvents=0;fillColor=none;top=0;left=0;bottom=0;right=0;points=[[0,0.5],[1,0.5]];portConstraint=eastwest;" vertex="1" parent="57gc0RbECpZAlQh10Z24-33">
          <mxGeometry y="1024" width="2883" height="512" as="geometry" />
        </mxCell>
        <mxCell id="57gc0RbECpZAlQh10Z24-43" value="" style="shape=partialRectangle;html=1;whiteSpace=wrap;connectable=0;fillColor=none;top=0;left=0;bottom=0;right=0;overflow=hidden;" vertex="1" parent="57gc0RbECpZAlQh10Z24-42">
          <mxGeometry width="961" height="512" as="geometry" />
        </mxCell>
        <mxCell id="57gc0RbECpZAlQh10Z24-44" value="" style="shape=partialRectangle;html=1;whiteSpace=wrap;connectable=0;fillColor=none;top=0;left=0;bottom=0;right=0;overflow=hidden;" vertex="1" parent="57gc0RbECpZAlQh10Z24-42">
          <mxGeometry x="961" width="961" height="512" as="geometry" />
        </mxCell>
        <mxCell id="57gc0RbECpZAlQh10Z24-45" value="" style="shape=partialRectangle;html=1;whiteSpace=wrap;connectable=0;fillColor=none;top=0;left=0;bottom=0;right=0;overflow=hidden;" vertex="1" parent="57gc0RbECpZAlQh10Z24-42">
          <mxGeometry x="1922" width="961" height="512" as="geometry" />
        </mxCell>
        <mxCell id="57gc0RbECpZAlQh10Z24-47" value="" style="shape=table;html=1;whiteSpace=wrap;startSize=0;container=1;collapsible=0;childLayout=tableLayout;fontSize=40;align=center;" vertex="1" parent="1">
          <mxGeometry x="-2081" y="3747" width="2890" height="2576" as="geometry" />
        </mxCell>
        <mxCell id="57gc0RbECpZAlQh10Z24-48" value="" style="shape=partialRectangle;html=1;whiteSpace=wrap;collapsible=0;dropTarget=0;pointerEvents=0;fillColor=none;top=0;left=0;bottom=0;right=0;points=[[0,0.5],[1,0.5]];portConstraint=eastwest;" vertex="1" parent="57gc0RbECpZAlQh10Z24-47">
          <mxGeometry width="2890" height="858" as="geometry" />
        </mxCell>
        <mxCell id="57gc0RbECpZAlQh10Z24-49" value="" style="shape=partialRectangle;html=1;whiteSpace=wrap;connectable=0;fillColor=none;top=0;left=0;bottom=0;right=0;overflow=hidden;" vertex="1" parent="57gc0RbECpZAlQh10Z24-48">
          <mxGeometry width="963" height="858" as="geometry" />
        </mxCell>
        <mxCell id="57gc0RbECpZAlQh10Z24-50" value="" style="shape=partialRectangle;html=1;whiteSpace=wrap;connectable=0;fillColor=none;top=0;left=0;bottom=0;right=0;overflow=hidden;" vertex="1" parent="57gc0RbECpZAlQh10Z24-48">
          <mxGeometry x="963" width="964" height="858" as="geometry" />
        </mxCell>
        <mxCell id="57gc0RbECpZAlQh10Z24-51" value="" style="shape=partialRectangle;html=1;whiteSpace=wrap;connectable=0;fillColor=none;top=0;left=0;bottom=0;right=0;overflow=hidden;" vertex="1" parent="57gc0RbECpZAlQh10Z24-48">
          <mxGeometry x="1927" width="963" height="858" as="geometry" />
        </mxCell>
        <mxCell id="57gc0RbECpZAlQh10Z24-52" value="" style="shape=partialRectangle;html=1;whiteSpace=wrap;collapsible=0;dropTarget=0;pointerEvents=0;fillColor=none;top=0;left=0;bottom=0;right=0;points=[[0,0.5],[1,0.5]];portConstraint=eastwest;" vertex="1" parent="57gc0RbECpZAlQh10Z24-47">
          <mxGeometry y="858" width="2890" height="860" as="geometry" />
        </mxCell>
        <mxCell id="57gc0RbECpZAlQh10Z24-53" value="" style="shape=partialRectangle;html=1;whiteSpace=wrap;connectable=0;fillColor=none;top=0;left=0;bottom=0;right=0;overflow=hidden;" vertex="1" parent="57gc0RbECpZAlQh10Z24-52">
          <mxGeometry width="963" height="860" as="geometry" />
        </mxCell>
        <mxCell id="57gc0RbECpZAlQh10Z24-54" value="" style="shape=partialRectangle;html=1;whiteSpace=wrap;connectable=0;fillColor=none;top=0;left=0;bottom=0;right=0;overflow=hidden;" vertex="1" parent="57gc0RbECpZAlQh10Z24-52">
          <mxGeometry x="963" width="964" height="860" as="geometry" />
        </mxCell>
        <mxCell id="57gc0RbECpZAlQh10Z24-55" value="" style="shape=partialRectangle;html=1;whiteSpace=wrap;connectable=0;fillColor=none;top=0;left=0;bottom=0;right=0;overflow=hidden;" vertex="1" parent="57gc0RbECpZAlQh10Z24-52">
          <mxGeometry x="1927" width="963" height="860" as="geometry" />
        </mxCell>
        <mxCell id="57gc0RbECpZAlQh10Z24-56" value="" style="shape=partialRectangle;html=1;whiteSpace=wrap;collapsible=0;dropTarget=0;pointerEvents=0;fillColor=none;top=0;left=0;bottom=0;right=0;points=[[0,0.5],[1,0.5]];portConstraint=eastwest;" vertex="1" parent="57gc0RbECpZAlQh10Z24-47">
          <mxGeometry y="1718" width="2890" height="858" as="geometry" />
        </mxCell>
        <mxCell id="57gc0RbECpZAlQh10Z24-57" value="" style="shape=partialRectangle;html=1;whiteSpace=wrap;connectable=0;fillColor=none;top=0;left=0;bottom=0;right=0;overflow=hidden;" vertex="1" parent="57gc0RbECpZAlQh10Z24-56">
          <mxGeometry width="963" height="858" as="geometry" />
        </mxCell>
        <mxCell id="57gc0RbECpZAlQh10Z24-58" value="" style="shape=partialRectangle;html=1;whiteSpace=wrap;connectable=0;fillColor=none;top=0;left=0;bottom=0;right=0;overflow=hidden;" vertex="1" parent="57gc0RbECpZAlQh10Z24-56">
          <mxGeometry x="963" width="964" height="858" as="geometry" />
        </mxCell>
        <mxCell id="57gc0RbECpZAlQh10Z24-59" value="" style="shape=partialRectangle;html=1;whiteSpace=wrap;connectable=0;fillColor=none;top=0;left=0;bottom=0;right=0;overflow=hidden;" vertex="1" parent="57gc0RbECpZAlQh10Z24-56">
          <mxGeometry x="1927" width="963" height="858" as="geometry" />
        </mxCell>
        <mxCell id="57gc0RbECpZAlQh10Z24-60" value="" style="shape=table;html=1;whiteSpace=wrap;startSize=0;container=1;collapsible=0;childLayout=tableLayout;fontSize=40;align=center;" vertex="1" parent="1">
          <mxGeometry x="-2218" y="6557" width="3033" height="1867" as="geometry" />
        </mxCell>
        <mxCell id="57gc0RbECpZAlQh10Z24-61" value="" style="shape=partialRectangle;html=1;whiteSpace=wrap;collapsible=0;dropTarget=0;pointerEvents=0;fillColor=none;top=0;left=0;bottom=0;right=0;points=[[0,0.5],[1,0.5]];portConstraint=eastwest;" vertex="1" parent="57gc0RbECpZAlQh10Z24-60">
          <mxGeometry width="3033" height="622" as="geometry" />
        </mxCell>
        <mxCell id="57gc0RbECpZAlQh10Z24-62" value="" style="shape=partialRectangle;html=1;whiteSpace=wrap;connectable=0;fillColor=none;top=0;left=0;bottom=0;right=0;overflow=hidden;" vertex="1" parent="57gc0RbECpZAlQh10Z24-61">
          <mxGeometry width="1011" height="622" as="geometry" />
        </mxCell>
        <mxCell id="57gc0RbECpZAlQh10Z24-63" value="" style="shape=partialRectangle;html=1;whiteSpace=wrap;connectable=0;fillColor=none;top=0;left=0;bottom=0;right=0;overflow=hidden;" vertex="1" parent="57gc0RbECpZAlQh10Z24-61">
          <mxGeometry x="1011" width="1011" height="622" as="geometry" />
        </mxCell>
        <mxCell id="57gc0RbECpZAlQh10Z24-64" value="" style="shape=partialRectangle;html=1;whiteSpace=wrap;connectable=0;fillColor=none;top=0;left=0;bottom=0;right=0;overflow=hidden;" vertex="1" parent="57gc0RbECpZAlQh10Z24-61">
          <mxGeometry x="2022" width="1011" height="622" as="geometry" />
        </mxCell>
        <mxCell id="57gc0RbECpZAlQh10Z24-65" value="" style="shape=partialRectangle;html=1;whiteSpace=wrap;collapsible=0;dropTarget=0;pointerEvents=0;fillColor=none;top=0;left=0;bottom=0;right=0;points=[[0,0.5],[1,0.5]];portConstraint=eastwest;" vertex="1" parent="57gc0RbECpZAlQh10Z24-60">
          <mxGeometry y="622" width="3033" height="623" as="geometry" />
        </mxCell>
        <mxCell id="57gc0RbECpZAlQh10Z24-66" value="" style="shape=partialRectangle;html=1;whiteSpace=wrap;connectable=0;fillColor=none;top=0;left=0;bottom=0;right=0;overflow=hidden;" vertex="1" parent="57gc0RbECpZAlQh10Z24-65">
          <mxGeometry width="1011" height="623" as="geometry" />
        </mxCell>
        <mxCell id="57gc0RbECpZAlQh10Z24-67" value="" style="shape=partialRectangle;html=1;whiteSpace=wrap;connectable=0;fillColor=none;top=0;left=0;bottom=0;right=0;overflow=hidden;" vertex="1" parent="57gc0RbECpZAlQh10Z24-65">
          <mxGeometry x="1011" width="1011" height="623" as="geometry" />
        </mxCell>
        <mxCell id="57gc0RbECpZAlQh10Z24-68" value="" style="shape=partialRectangle;html=1;whiteSpace=wrap;connectable=0;fillColor=none;top=0;left=0;bottom=0;right=0;overflow=hidden;" vertex="1" parent="57gc0RbECpZAlQh10Z24-65">
          <mxGeometry x="2022" width="1011" height="623" as="geometry" />
        </mxCell>
        <mxCell id="57gc0RbECpZAlQh10Z24-69" value="" style="shape=partialRectangle;html=1;whiteSpace=wrap;collapsible=0;dropTarget=0;pointerEvents=0;fillColor=none;top=0;left=0;bottom=0;right=0;points=[[0,0.5],[1,0.5]];portConstraint=eastwest;" vertex="1" parent="57gc0RbECpZAlQh10Z24-60">
          <mxGeometry y="1245" width="3033" height="622" as="geometry" />
        </mxCell>
        <mxCell id="57gc0RbECpZAlQh10Z24-70" value="" style="shape=partialRectangle;html=1;whiteSpace=wrap;connectable=0;fillColor=none;top=0;left=0;bottom=0;right=0;overflow=hidden;" vertex="1" parent="57gc0RbECpZAlQh10Z24-69">
          <mxGeometry width="1011" height="622" as="geometry" />
        </mxCell>
        <mxCell id="57gc0RbECpZAlQh10Z24-71" value="" style="shape=partialRectangle;html=1;whiteSpace=wrap;connectable=0;fillColor=none;top=0;left=0;bottom=0;right=0;overflow=hidden;" vertex="1" parent="57gc0RbECpZAlQh10Z24-69">
          <mxGeometry x="1011" width="1011" height="622" as="geometry" />
        </mxCell>
        <mxCell id="57gc0RbECpZAlQh10Z24-72" value="" style="shape=partialRectangle;html=1;whiteSpace=wrap;connectable=0;fillColor=none;top=0;left=0;bottom=0;right=0;overflow=hidden;" vertex="1" parent="57gc0RbECpZAlQh10Z24-69">
          <mxGeometry x="2022" width="1011" height="622" as="geometry" />
        </mxCell>
      </root>
    </mxGraphModel>
  </diagram>
</mxfile>
